<svg width="165" height="70" viewBox="0 0 165 70" fill="none" xmlns="http://www.w3.org/2000/svg">
  <path d="M61.0599 8.22729L57.3961 5.81219L53.7322 3.3971L61.0599 0.982003V8.22729Z" fill="#6B61F0"/>
  <path d="M19.5363 50.4914L29.3066 36.0009L34.1917 39.6235L57.3961 5.81219M57.3961 5.81219L61.0599 8.22729V0.982003L53.7322 3.3971L57.3961 5.81219Z" stroke="#6B61F0" strokeWidth="1.42062"/>
  <path d="M34.1966 29.9562H9.77095C9.77095 29.9562 13.4348 23.3696 17.0986 20.735C20.7625 18.1003 26.8689 15.4657 26.8689 15.4657L34.1966 29.9562Z" fill="#6B61F0"/>
  <path d="M24.1458 32.0116L11.8558 53.3251C11.8558 53.3251 8.3103 47.0901 7.9982 42.6779C7.68611 38.2657 8.60301 31.7222 8.60301 31.7222L24.1458 32.0116Z" fill="#6B61F0"/>
  <path d="M21.2924 42.0373L34.5956 62.7475C34.5956 62.7475 27.3637 62.9294 23.2736 61.1382C19.1836 59.347 13.7632 55.4848 13.7632 55.4848L21.2924 42.0373Z" fill="#6B61F0"/>
  <path d="M29.3092 47.853L54.1033 46.8872C54.1033 46.8872 50.6284 53.1609 47.0069 55.7573C43.3855 58.3537 37.2846 61.0466 37.2846 61.0466L29.3092 47.853Z" fill="#6B61F0"/>
  <path d="M39.0784 44.4323L50.6557 22.7322C50.6557 22.7322 54.4059 28.849 54.8639 33.2488C55.322 37.6485 54.6224 44.2182 54.6224 44.2182L39.0784 44.4323Z" fill="#6B61F0"/>
  <text x="70" y="42" font-family="Space Grotesk, sans-serif" font-weight="bold" font-size="18" fill="#0B1C30">Omniview</text>
  <text x="70" y="58" font-family="Inter, sans-serif" font-size="10" fill="#6B7280" opacity="0.8">Resource Intelligence</text>
</svg>
